<svg width="32" height="32" viewBox="0 0 127 166" fill="none" xmlns="http://www.w3.org/2000/svg">
<path d="M46.5877 115V165.679H29.4695V13.4175H100.87V115H46.5877ZM46.5877 30.0851V98.7828H82.851V30.3104L46.5877 30.0851Z" fill="#FF0066"/>
<path d="M46.5877 115V165.679H29.4695V13.4175H100.87V115H46.5877ZM46.5877 30.0851V98.7828H82.851V30.3104L46.5877 30.0851Z" fill="white"/>
<path d="M0 30C0 13.4315 13.4315 0 30 0H97C113.569 0 127 13.4315 127 30V97C127 113.569 113.569 127 97 127H30C13.4315 127 0 113.569 0 97V30Z" fill="#7B00FF"/>
<path d="M46.5877 115V165.679H29.4695V13.4175H100.87V115H46.5877ZM46.5877 30.0851V98.7828H82.851V30.3104L46.5877 30.0851Z" fill="white"/>
</svg>

